<mxfile host="app.diagrams.net" modified="2023-04-24T13:45:15.248Z" agent="Mozilla/5.0 (Windows NT 10.0; Win64; x64) AppleWebKit/537.36 (KHTML, like Gecko) Chrome/112.0.0.0 Safari/537.36" etag="MOIqiy6HQFUcAE3I-31P" version="21.2.1" type="device">
  <diagram name="Страница-1" id="Fpns3AuMXjhxVTUKHxPh">
    <mxGraphModel dx="1760" dy="968" grid="1" gridSize="10" guides="1" tooltips="1" connect="1" arrows="1" fold="1" page="1" pageScale="1" pageWidth="1654" pageHeight="1169" math="0" shadow="0">
      <root>
        <mxCell id="0" />
        <mxCell id="1" parent="0" />
        <mxCell id="bCiMZOsuGKfymfVhtz7p-61" style="edgeStyle=orthogonalEdgeStyle;rounded=0;orthogonalLoop=1;jettySize=auto;html=1;exitX=0.5;exitY=0;exitDx=0;exitDy=0;entryX=0.5;entryY=0;entryDx=0;entryDy=0;" parent="1" source="3YyaaubXwWMvpkX7fTCM-2" target="bCiMZOsuGKfymfVhtz7p-60" edge="1">
          <mxGeometry relative="1" as="geometry" />
        </mxCell>
        <mxCell id="bCiMZOsuGKfymfVhtz7p-96" style="edgeStyle=orthogonalEdgeStyle;rounded=0;orthogonalLoop=1;jettySize=auto;html=1;exitX=0.25;exitY=0;exitDx=0;exitDy=0;entryX=1;entryY=0.5;entryDx=0;entryDy=0;" parent="1" source="3YyaaubXwWMvpkX7fTCM-2" target="bCiMZOsuGKfymfVhtz7p-85" edge="1">
          <mxGeometry relative="1" as="geometry">
            <Array as="points">
              <mxPoint x="470" y="630" />
              <mxPoint x="470" y="405" />
            </Array>
          </mxGeometry>
        </mxCell>
        <mxCell id="3YyaaubXwWMvpkX7fTCM-2" value="Buyer" style="rounded=1;whiteSpace=wrap;html=1;fillColor=#d5e8d4;strokeColor=#82b366;" parent="1" vertex="1">
          <mxGeometry x="440" y="630" width="80" height="30" as="geometry" />
        </mxCell>
        <mxCell id="bCiMZOsuGKfymfVhtz7p-9" value="" style="endArrow=none;html=1;rounded=0;" parent="1" edge="1">
          <mxGeometry width="50" height="50" relative="1" as="geometry">
            <mxPoint x="370" y="690" as="sourcePoint" />
            <mxPoint x="610" y="690" as="targetPoint" />
          </mxGeometry>
        </mxCell>
        <mxCell id="bCiMZOsuGKfymfVhtz7p-10" value="" style="endArrow=classic;html=1;rounded=0;" parent="1" edge="1">
          <mxGeometry width="50" height="50" relative="1" as="geometry">
            <mxPoint x="370" y="690" as="sourcePoint" />
            <mxPoint x="370" y="730" as="targetPoint" />
          </mxGeometry>
        </mxCell>
        <mxCell id="bCiMZOsuGKfymfVhtz7p-11" value="&lt;u&gt;Buyer_ID&lt;/u&gt;" style="ellipse;whiteSpace=wrap;html=1;" parent="1" vertex="1">
          <mxGeometry x="330" y="730" width="70" height="40" as="geometry" />
        </mxCell>
        <mxCell id="bCiMZOsuGKfymfVhtz7p-12" value="" style="endArrow=classic;html=1;rounded=0;" parent="1" edge="1">
          <mxGeometry width="50" height="50" relative="1" as="geometry">
            <mxPoint x="410" y="690" as="sourcePoint" />
            <mxPoint x="410" y="780" as="targetPoint" />
          </mxGeometry>
        </mxCell>
        <mxCell id="bCiMZOsuGKfymfVhtz7p-13" value="F_Name" style="ellipse;whiteSpace=wrap;html=1;" parent="1" vertex="1">
          <mxGeometry x="370" y="780" width="70" height="40" as="geometry" />
        </mxCell>
        <mxCell id="bCiMZOsuGKfymfVhtz7p-15" value="" style="endArrow=classic;html=1;rounded=0;" parent="1" edge="1">
          <mxGeometry width="50" height="50" relative="1" as="geometry">
            <mxPoint x="480" y="690" as="sourcePoint" />
            <mxPoint x="480" y="780" as="targetPoint" />
          </mxGeometry>
        </mxCell>
        <mxCell id="bCiMZOsuGKfymfVhtz7p-16" value="L_Name" style="ellipse;whiteSpace=wrap;html=1;" parent="1" vertex="1">
          <mxGeometry x="450" y="780" width="70" height="40" as="geometry" />
        </mxCell>
        <mxCell id="bCiMZOsuGKfymfVhtz7p-19" value="" style="endArrow=none;html=1;rounded=0;" parent="1" edge="1">
          <mxGeometry width="50" height="50" relative="1" as="geometry">
            <mxPoint x="480" y="700" as="sourcePoint" />
            <mxPoint x="480" y="660" as="targetPoint" />
          </mxGeometry>
        </mxCell>
        <mxCell id="bCiMZOsuGKfymfVhtz7p-20" value="" style="endArrow=classic;html=1;rounded=0;" parent="1" edge="1">
          <mxGeometry width="50" height="50" relative="1" as="geometry">
            <mxPoint x="560" y="690" as="sourcePoint" />
            <mxPoint x="560" y="780" as="targetPoint" />
          </mxGeometry>
        </mxCell>
        <mxCell id="bCiMZOsuGKfymfVhtz7p-21" value="Email" style="ellipse;whiteSpace=wrap;html=1;" parent="1" vertex="1">
          <mxGeometry x="530" y="780" width="70" height="40" as="geometry" />
        </mxCell>
        <mxCell id="bCiMZOsuGKfymfVhtz7p-23" value="" style="endArrow=classic;html=1;rounded=0;" parent="1" edge="1">
          <mxGeometry width="50" height="50" relative="1" as="geometry">
            <mxPoint x="610" y="690" as="sourcePoint" />
            <mxPoint x="610" y="730" as="targetPoint" />
          </mxGeometry>
        </mxCell>
        <mxCell id="bCiMZOsuGKfymfVhtz7p-24" value="Password" style="ellipse;whiteSpace=wrap;html=1;" parent="1" vertex="1">
          <mxGeometry x="580" y="730" width="70" height="40" as="geometry" />
        </mxCell>
        <mxCell id="bCiMZOsuGKfymfVhtz7p-42" style="edgeStyle=orthogonalEdgeStyle;rounded=0;orthogonalLoop=1;jettySize=auto;html=1;exitX=0.5;exitY=1;exitDx=0;exitDy=0;entryX=0.5;entryY=0;entryDx=0;entryDy=0;" parent="1" source="bCiMZOsuGKfymfVhtz7p-29" target="bCiMZOsuGKfymfVhtz7p-43" edge="1">
          <mxGeometry relative="1" as="geometry">
            <mxPoint x="555.0000000000002" y="945" as="targetPoint" />
          </mxGeometry>
        </mxCell>
        <mxCell id="bCiMZOsuGKfymfVhtz7p-57" style="edgeStyle=orthogonalEdgeStyle;rounded=0;orthogonalLoop=1;jettySize=auto;html=1;exitX=1;exitY=0.5;exitDx=0;exitDy=0;entryX=1;entryY=0.5;entryDx=0;entryDy=0;" parent="1" source="bCiMZOsuGKfymfVhtz7p-29" target="3YyaaubXwWMvpkX7fTCM-2" edge="1">
          <mxGeometry relative="1" as="geometry">
            <Array as="points">
              <mxPoint x="700" y="870" />
              <mxPoint x="700" y="645" />
            </Array>
          </mxGeometry>
        </mxCell>
        <mxCell id="bCiMZOsuGKfymfVhtz7p-29" value="Address" style="rounded=1;whiteSpace=wrap;html=1;fillColor=#d5e8d4;strokeColor=#82b366;" parent="1" vertex="1">
          <mxGeometry x="515" y="855" width="80" height="30" as="geometry" />
        </mxCell>
        <mxCell id="bCiMZOsuGKfymfVhtz7p-33" value="" style="endArrow=none;html=1;rounded=0;" parent="1" edge="1">
          <mxGeometry width="50" height="50" relative="1" as="geometry">
            <mxPoint x="385" y="910" as="sourcePoint" />
            <mxPoint x="715" y="910" as="targetPoint" />
          </mxGeometry>
        </mxCell>
        <mxCell id="bCiMZOsuGKfymfVhtz7p-34" value="" style="endArrow=classic;html=1;rounded=0;" parent="1" edge="1">
          <mxGeometry width="50" height="50" relative="1" as="geometry">
            <mxPoint x="384.47" y="910" as="sourcePoint" />
            <mxPoint x="384.47" y="950" as="targetPoint" />
          </mxGeometry>
        </mxCell>
        <mxCell id="bCiMZOsuGKfymfVhtz7p-35" value="&lt;u&gt;Address_ID&lt;/u&gt;" style="ellipse;whiteSpace=wrap;html=1;" parent="1" vertex="1">
          <mxGeometry x="350" y="950" width="70" height="40" as="geometry" />
        </mxCell>
        <mxCell id="bCiMZOsuGKfymfVhtz7p-36" value="" style="endArrow=classic;html=1;rounded=0;" parent="1" edge="1">
          <mxGeometry width="50" height="50" relative="1" as="geometry">
            <mxPoint x="465" y="910" as="sourcePoint" />
            <mxPoint x="465" y="950" as="targetPoint" />
          </mxGeometry>
        </mxCell>
        <mxCell id="bCiMZOsuGKfymfVhtz7p-37" value="Buyer_ID(FK)" style="ellipse;whiteSpace=wrap;html=1;" parent="1" vertex="1">
          <mxGeometry x="425" y="950" width="80" height="40" as="geometry" />
        </mxCell>
        <mxCell id="bCiMZOsuGKfymfVhtz7p-38" value="" style="endArrow=classic;html=1;rounded=0;" parent="1" edge="1">
          <mxGeometry width="50" height="50" relative="1" as="geometry">
            <mxPoint x="515" y="910" as="sourcePoint" />
            <mxPoint x="515" y="1000" as="targetPoint" />
          </mxGeometry>
        </mxCell>
        <mxCell id="bCiMZOsuGKfymfVhtz7p-39" value="St_Address" style="ellipse;whiteSpace=wrap;html=1;" parent="1" vertex="1">
          <mxGeometry x="475" y="1000" width="70" height="40" as="geometry" />
        </mxCell>
        <mxCell id="bCiMZOsuGKfymfVhtz7p-43" value="City" style="ellipse;whiteSpace=wrap;html=1;" parent="1" vertex="1">
          <mxGeometry x="520" y="950" width="70" height="40" as="geometry" />
        </mxCell>
        <mxCell id="bCiMZOsuGKfymfVhtz7p-44" value="" style="endArrow=classic;html=1;rounded=0;" parent="1" edge="1">
          <mxGeometry width="50" height="50" relative="1" as="geometry">
            <mxPoint x="615" y="910" as="sourcePoint" />
            <mxPoint x="615" y="1000" as="targetPoint" />
          </mxGeometry>
        </mxCell>
        <mxCell id="bCiMZOsuGKfymfVhtz7p-45" value="State" style="ellipse;whiteSpace=wrap;html=1;" parent="1" vertex="1">
          <mxGeometry x="585" y="1000" width="70" height="40" as="geometry" />
        </mxCell>
        <mxCell id="bCiMZOsuGKfymfVhtz7p-46" value="" style="endArrow=classic;html=1;rounded=0;" parent="1" edge="1">
          <mxGeometry width="50" height="50" relative="1" as="geometry">
            <mxPoint x="655" y="910" as="sourcePoint" />
            <mxPoint x="655" y="950" as="targetPoint" />
          </mxGeometry>
        </mxCell>
        <mxCell id="bCiMZOsuGKfymfVhtz7p-47" value="Country" style="ellipse;whiteSpace=wrap;html=1;" parent="1" vertex="1">
          <mxGeometry x="625" y="950" width="70" height="40" as="geometry" />
        </mxCell>
        <mxCell id="bCiMZOsuGKfymfVhtz7p-48" value="" style="endArrow=classic;html=1;rounded=0;" parent="1" edge="1">
          <mxGeometry width="50" height="50" relative="1" as="geometry">
            <mxPoint x="715" y="910" as="sourcePoint" />
            <mxPoint x="715" y="1000" as="targetPoint" />
          </mxGeometry>
        </mxCell>
        <mxCell id="bCiMZOsuGKfymfVhtz7p-49" value="Postal_Code" style="ellipse;whiteSpace=wrap;html=1;" parent="1" vertex="1">
          <mxGeometry x="675" y="1000" width="70" height="40" as="geometry" />
        </mxCell>
        <mxCell id="bCiMZOsuGKfymfVhtz7p-58" value="" style="rhombus;whiteSpace=wrap;html=1;fillColor=#f8cecc;strokeColor=#b85450;" parent="1" vertex="1">
          <mxGeometry x="660" y="750" width="70" height="60" as="geometry" />
        </mxCell>
        <mxCell id="bCiMZOsuGKfymfVhtz7p-60" value="Payment_Meth" style="rounded=1;whiteSpace=wrap;html=1;fillColor=#d5e8d4;strokeColor=#82b366;" parent="1" vertex="1">
          <mxGeometry x="820" y="630" width="100" height="30" as="geometry" />
        </mxCell>
        <mxCell id="bCiMZOsuGKfymfVhtz7p-62" value="" style="rhombus;whiteSpace=wrap;html=1;fillColor=#f8cecc;strokeColor=#b85450;" parent="1" vertex="1">
          <mxGeometry x="730" y="590" width="70" height="60" as="geometry" />
        </mxCell>
        <mxCell id="bCiMZOsuGKfymfVhtz7p-68" value="" style="endArrow=none;html=1;rounded=0;" parent="1" edge="1">
          <mxGeometry width="50" height="50" relative="1" as="geometry">
            <mxPoint x="869" y="680" as="sourcePoint" />
            <mxPoint x="869.47" y="660" as="targetPoint" />
          </mxGeometry>
        </mxCell>
        <mxCell id="bCiMZOsuGKfymfVhtz7p-69" value="" style="endArrow=none;html=1;rounded=0;" parent="1" edge="1">
          <mxGeometry width="50" height="50" relative="1" as="geometry">
            <mxPoint x="760" y="680" as="sourcePoint" />
            <mxPoint x="1170" y="680" as="targetPoint" />
          </mxGeometry>
        </mxCell>
        <mxCell id="bCiMZOsuGKfymfVhtz7p-70" value="" style="endArrow=classic;html=1;rounded=0;" parent="1" edge="1">
          <mxGeometry width="50" height="50" relative="1" as="geometry">
            <mxPoint x="760" y="680" as="sourcePoint" />
            <mxPoint x="760" y="720" as="targetPoint" />
          </mxGeometry>
        </mxCell>
        <mxCell id="bCiMZOsuGKfymfVhtz7p-71" value="CVV" style="ellipse;whiteSpace=wrap;html=1;" parent="1" vertex="1">
          <mxGeometry x="720" y="720" width="70" height="40" as="geometry" />
        </mxCell>
        <mxCell id="bCiMZOsuGKfymfVhtz7p-72" value="" style="endArrow=classic;html=1;rounded=0;" parent="1" edge="1">
          <mxGeometry width="50" height="50" relative="1" as="geometry">
            <mxPoint x="840" y="680" as="sourcePoint" />
            <mxPoint x="840" y="720" as="targetPoint" />
          </mxGeometry>
        </mxCell>
        <mxCell id="bCiMZOsuGKfymfVhtz7p-73" value="Buyer_ID(FK)" style="ellipse;whiteSpace=wrap;html=1;" parent="1" vertex="1">
          <mxGeometry x="800" y="720" width="80" height="40" as="geometry" />
        </mxCell>
        <mxCell id="bCiMZOsuGKfymfVhtz7p-76" value="" style="endArrow=classic;html=1;rounded=0;" parent="1" edge="1">
          <mxGeometry width="50" height="50" relative="1" as="geometry">
            <mxPoint x="890" y="680" as="sourcePoint" />
            <mxPoint x="890" y="770" as="targetPoint" />
          </mxGeometry>
        </mxCell>
        <mxCell id="bCiMZOsuGKfymfVhtz7p-77" value="Card_N" style="ellipse;whiteSpace=wrap;html=1;" parent="1" vertex="1">
          <mxGeometry x="850" y="770" width="70" height="40" as="geometry" />
        </mxCell>
        <mxCell id="bCiMZOsuGKfymfVhtz7p-78" value="" style="endArrow=classic;html=1;rounded=0;" parent="1" edge="1">
          <mxGeometry width="50" height="50" relative="1" as="geometry">
            <mxPoint x="980" y="680" as="sourcePoint" />
            <mxPoint x="980" y="770" as="targetPoint" />
          </mxGeometry>
        </mxCell>
        <mxCell id="bCiMZOsuGKfymfVhtz7p-79" value="&lt;u&gt;Payment_Meth_ID&lt;/u&gt;" style="ellipse;whiteSpace=wrap;html=1;" parent="1" vertex="1">
          <mxGeometry x="930" y="770" width="110" height="40" as="geometry" />
        </mxCell>
        <mxCell id="bCiMZOsuGKfymfVhtz7p-80" value="" style="endArrow=classic;html=1;rounded=0;" parent="1" edge="1">
          <mxGeometry width="50" height="50" relative="1" as="geometry">
            <mxPoint x="1040" y="680" as="sourcePoint" />
            <mxPoint x="1040" y="720" as="targetPoint" />
          </mxGeometry>
        </mxCell>
        <mxCell id="bCiMZOsuGKfymfVhtz7p-81" value="Cardholder_Name" style="ellipse;whiteSpace=wrap;html=1;" parent="1" vertex="1">
          <mxGeometry x="990" y="720" width="110" height="40" as="geometry" />
        </mxCell>
        <mxCell id="bCiMZOsuGKfymfVhtz7p-83" value="Cardholder_Name" style="ellipse;whiteSpace=wrap;html=1;" parent="1" vertex="1">
          <mxGeometry x="1110" y="720" width="110" height="40" as="geometry" />
        </mxCell>
        <mxCell id="bCiMZOsuGKfymfVhtz7p-84" value="" style="endArrow=classic;html=1;rounded=0;" parent="1" edge="1">
          <mxGeometry width="50" height="50" relative="1" as="geometry">
            <mxPoint x="1170" y="680" as="sourcePoint" />
            <mxPoint x="1170" y="720" as="targetPoint" />
          </mxGeometry>
        </mxCell>
        <mxCell id="bCiMZOsuGKfymfVhtz7p-85" value="Cart" style="rounded=1;whiteSpace=wrap;html=1;fillColor=#d5e8d4;strokeColor=#82b366;" parent="1" vertex="1">
          <mxGeometry x="260" y="390" width="80" height="30" as="geometry" />
        </mxCell>
        <mxCell id="bCiMZOsuGKfymfVhtz7p-86" value="" style="endArrow=none;html=1;rounded=0;" parent="1" edge="1">
          <mxGeometry width="50" height="50" relative="1" as="geometry">
            <mxPoint x="299" y="450" as="sourcePoint" />
            <mxPoint x="299.44" y="420" as="targetPoint" />
          </mxGeometry>
        </mxCell>
        <mxCell id="bCiMZOsuGKfymfVhtz7p-87" value="" style="endArrow=none;html=1;rounded=0;" parent="1" edge="1">
          <mxGeometry width="50" height="50" relative="1" as="geometry">
            <mxPoint x="210" y="450" as="sourcePoint" />
            <mxPoint x="370" y="450" as="targetPoint" />
          </mxGeometry>
        </mxCell>
        <mxCell id="bCiMZOsuGKfymfVhtz7p-88" value="" style="endArrow=classic;html=1;rounded=0;" parent="1" edge="1">
          <mxGeometry width="50" height="50" relative="1" as="geometry">
            <mxPoint x="210" y="450" as="sourcePoint" />
            <mxPoint x="210" y="490" as="targetPoint" />
          </mxGeometry>
        </mxCell>
        <mxCell id="bCiMZOsuGKfymfVhtz7p-89" value="" style="endArrow=classic;html=1;rounded=0;" parent="1" edge="1">
          <mxGeometry width="50" height="50" relative="1" as="geometry">
            <mxPoint x="270" y="450" as="sourcePoint" />
            <mxPoint x="270" y="540" as="targetPoint" />
          </mxGeometry>
        </mxCell>
        <mxCell id="bCiMZOsuGKfymfVhtz7p-90" value="" style="endArrow=classic;html=1;rounded=0;" parent="1" edge="1">
          <mxGeometry width="50" height="50" relative="1" as="geometry">
            <mxPoint x="330" y="450" as="sourcePoint" />
            <mxPoint x="330" y="540" as="targetPoint" />
          </mxGeometry>
        </mxCell>
        <mxCell id="bCiMZOsuGKfymfVhtz7p-91" value="" style="endArrow=classic;html=1;rounded=0;" parent="1" edge="1">
          <mxGeometry width="50" height="50" relative="1" as="geometry">
            <mxPoint x="370" y="450" as="sourcePoint" />
            <mxPoint x="370" y="490" as="targetPoint" />
          </mxGeometry>
        </mxCell>
        <mxCell id="bCiMZOsuGKfymfVhtz7p-92" value="&lt;u&gt;Cart_ID&lt;/u&gt;" style="ellipse;whiteSpace=wrap;html=1;" parent="1" vertex="1">
          <mxGeometry x="230" y="540" width="70" height="40" as="geometry" />
        </mxCell>
        <mxCell id="bCiMZOsuGKfymfVhtz7p-93" value="Sneaker_Model_Varianty_ID(FK)" style="ellipse;whiteSpace=wrap;html=1;" parent="1" vertex="1">
          <mxGeometry x="60" y="490" width="190" height="30" as="geometry" />
        </mxCell>
        <mxCell id="bCiMZOsuGKfymfVhtz7p-94" value="Buyer_ID(FK)" style="ellipse;whiteSpace=wrap;html=1;" parent="1" vertex="1">
          <mxGeometry x="310" y="540" width="80" height="40" as="geometry" />
        </mxCell>
        <mxCell id="bCiMZOsuGKfymfVhtz7p-95" value="Quantity" style="ellipse;whiteSpace=wrap;html=1;" parent="1" vertex="1">
          <mxGeometry x="350" y="490" width="80" height="40" as="geometry" />
        </mxCell>
        <mxCell id="bCiMZOsuGKfymfVhtz7p-97" value="" style="rhombus;whiteSpace=wrap;html=1;fillColor=#f8cecc;strokeColor=#b85450;" parent="1" vertex="1">
          <mxGeometry x="435" y="520" width="70" height="60" as="geometry" />
        </mxCell>
        <mxCell id="bCiMZOsuGKfymfVhtz7p-113" style="edgeStyle=orthogonalEdgeStyle;rounded=0;orthogonalLoop=1;jettySize=auto;html=1;exitX=0;exitY=0;exitDx=0;exitDy=0;entryX=0.5;entryY=0;entryDx=0;entryDy=0;" parent="1" source="bCiMZOsuGKfymfVhtz7p-98" target="bCiMZOsuGKfymfVhtz7p-85" edge="1">
          <mxGeometry relative="1" as="geometry" />
        </mxCell>
        <mxCell id="bCiMZOsuGKfymfVhtz7p-98" value="Sneaker_Model_Varianty" style="rounded=1;whiteSpace=wrap;html=1;fillColor=#d5e8d4;strokeColor=#82b366;" parent="1" vertex="1">
          <mxGeometry x="625" y="390" width="175" height="30" as="geometry" />
        </mxCell>
        <mxCell id="bCiMZOsuGKfymfVhtz7p-99" value="" style="endArrow=none;html=1;rounded=0;" parent="1" edge="1">
          <mxGeometry width="50" height="50" relative="1" as="geometry">
            <mxPoint x="712" y="450" as="sourcePoint" />
            <mxPoint x="712.44" y="420" as="targetPoint" />
          </mxGeometry>
        </mxCell>
        <mxCell id="bCiMZOsuGKfymfVhtz7p-100" value="" style="endArrow=none;html=1;rounded=0;" parent="1" edge="1">
          <mxGeometry width="50" height="50" relative="1" as="geometry">
            <mxPoint x="567.5" y="450" as="sourcePoint" />
            <mxPoint x="857.5" y="450" as="targetPoint" />
          </mxGeometry>
        </mxCell>
        <mxCell id="bCiMZOsuGKfymfVhtz7p-101" value="" style="endArrow=classic;html=1;rounded=0;" parent="1" edge="1">
          <mxGeometry width="50" height="50" relative="1" as="geometry">
            <mxPoint x="570" y="450" as="sourcePoint" />
            <mxPoint x="570" y="490" as="targetPoint" />
          </mxGeometry>
        </mxCell>
        <mxCell id="bCiMZOsuGKfymfVhtz7p-102" value="Sneaker_Model_ID(FK)" style="ellipse;whiteSpace=wrap;html=1;" parent="1" vertex="1">
          <mxGeometry x="480" y="490" width="140" height="30" as="geometry" />
        </mxCell>
        <mxCell id="bCiMZOsuGKfymfVhtz7p-103" value="" style="endArrow=classic;html=1;rounded=0;" parent="1" edge="1">
          <mxGeometry width="50" height="50" relative="1" as="geometry">
            <mxPoint x="650" y="450" as="sourcePoint" />
            <mxPoint x="650" y="490" as="targetPoint" />
          </mxGeometry>
        </mxCell>
        <mxCell id="bCiMZOsuGKfymfVhtz7p-104" value="Size" style="ellipse;whiteSpace=wrap;html=1;" parent="1" vertex="1">
          <mxGeometry x="625" y="490" width="70" height="30" as="geometry" />
        </mxCell>
        <mxCell id="bCiMZOsuGKfymfVhtz7p-105" value="" style="endArrow=classic;html=1;rounded=0;" parent="1" edge="1">
          <mxGeometry width="50" height="50" relative="1" as="geometry">
            <mxPoint x="700" y="450" as="sourcePoint" />
            <mxPoint x="700" y="540" as="targetPoint" />
          </mxGeometry>
        </mxCell>
        <mxCell id="bCiMZOsuGKfymfVhtz7p-106" value="Color" style="ellipse;whiteSpace=wrap;html=1;" parent="1" vertex="1">
          <mxGeometry x="660" y="540" width="70" height="30" as="geometry" />
        </mxCell>
        <mxCell id="bCiMZOsuGKfymfVhtz7p-107" value="" style="endArrow=classic;html=1;rounded=0;" parent="1" edge="1">
          <mxGeometry width="50" height="50" relative="1" as="geometry">
            <mxPoint x="744" y="450" as="sourcePoint" />
            <mxPoint x="744" y="490" as="targetPoint" />
          </mxGeometry>
        </mxCell>
        <mxCell id="bCiMZOsuGKfymfVhtz7p-108" value="Quantity_Avaliable" style="ellipse;whiteSpace=wrap;html=1;" parent="1" vertex="1">
          <mxGeometry x="705" y="490" width="120" height="30" as="geometry" />
        </mxCell>
        <mxCell id="bCiMZOsuGKfymfVhtz7p-109" value="" style="endArrow=classic;html=1;rounded=0;" parent="1" edge="1">
          <mxGeometry width="50" height="50" relative="1" as="geometry">
            <mxPoint x="860" y="450" as="sourcePoint" />
            <mxPoint x="860" y="490" as="targetPoint" />
          </mxGeometry>
        </mxCell>
        <mxCell id="bCiMZOsuGKfymfVhtz7p-110" value="&lt;u&gt;Sneaker_Model_Varianty_ID&lt;/u&gt;" style="ellipse;whiteSpace=wrap;html=1;" parent="1" vertex="1">
          <mxGeometry x="830" y="490" width="190" height="30" as="geometry" />
        </mxCell>
        <mxCell id="bCiMZOsuGKfymfVhtz7p-114" value="" style="rhombus;whiteSpace=wrap;html=1;fillColor=#f8cecc;strokeColor=#b85450;" parent="1" vertex="1">
          <mxGeometry x="505" y="340" width="70" height="60" as="geometry" />
        </mxCell>
        <mxCell id="bCiMZOsuGKfymfVhtz7p-151" style="edgeStyle=orthogonalEdgeStyle;rounded=0;orthogonalLoop=1;jettySize=auto;html=1;exitX=1;exitY=0.5;exitDx=0;exitDy=0;entryX=1;entryY=0.5;entryDx=0;entryDy=0;" parent="1" source="bCiMZOsuGKfymfVhtz7p-115" target="bCiMZOsuGKfymfVhtz7p-98" edge="1">
          <mxGeometry relative="1" as="geometry">
            <Array as="points">
              <mxPoint x="860" y="115" />
              <mxPoint x="860" y="405" />
            </Array>
          </mxGeometry>
        </mxCell>
        <mxCell id="bCiMZOsuGKfymfVhtz7p-115" value="Sneaker_Model" style="rounded=1;whiteSpace=wrap;html=1;fillColor=#d5e8d4;strokeColor=#82b366;" parent="1" vertex="1">
          <mxGeometry x="530" y="100" width="175" height="30" as="geometry" />
        </mxCell>
        <mxCell id="bCiMZOsuGKfymfVhtz7p-116" value="" style="endArrow=none;html=1;rounded=0;" parent="1" edge="1">
          <mxGeometry width="50" height="50" relative="1" as="geometry">
            <mxPoint x="616.79" y="160" as="sourcePoint" />
            <mxPoint x="617.23" y="130" as="targetPoint" />
          </mxGeometry>
        </mxCell>
        <mxCell id="bCiMZOsuGKfymfVhtz7p-117" value="&lt;u&gt;Sneaker_Model_ID&lt;/u&gt;" style="ellipse;whiteSpace=wrap;html=1;" parent="1" vertex="1">
          <mxGeometry x="705" y="255" width="140" height="30" as="geometry" />
        </mxCell>
        <mxCell id="bCiMZOsuGKfymfVhtz7p-118" value="" style="endArrow=none;html=1;rounded=0;" parent="1" edge="1">
          <mxGeometry width="50" height="50" relative="1" as="geometry">
            <mxPoint x="480" y="160" as="sourcePoint" />
            <mxPoint x="770" y="160" as="targetPoint" />
          </mxGeometry>
        </mxCell>
        <mxCell id="bCiMZOsuGKfymfVhtz7p-120" value="" style="endArrow=classic;html=1;rounded=0;" parent="1" edge="1">
          <mxGeometry width="50" height="50" relative="1" as="geometry">
            <mxPoint x="480" y="160" as="sourcePoint" />
            <mxPoint x="480" y="250" as="targetPoint" />
          </mxGeometry>
        </mxCell>
        <mxCell id="bCiMZOsuGKfymfVhtz7p-121" value="Brand" style="ellipse;whiteSpace=wrap;html=1;" parent="1" vertex="1">
          <mxGeometry x="450" y="250" width="70" height="30" as="geometry" />
        </mxCell>
        <mxCell id="bCiMZOsuGKfymfVhtz7p-122" value="" style="endArrow=classic;html=1;rounded=0;" parent="1" edge="1">
          <mxGeometry width="50" height="50" relative="1" as="geometry">
            <mxPoint x="570" y="160" as="sourcePoint" />
            <mxPoint x="570" y="200" as="targetPoint" />
          </mxGeometry>
        </mxCell>
        <mxCell id="bCiMZOsuGKfymfVhtz7p-123" value="" style="endArrow=classic;html=1;rounded=0;" parent="1" edge="1">
          <mxGeometry width="50" height="50" relative="1" as="geometry">
            <mxPoint x="690" y="160" as="sourcePoint" />
            <mxPoint x="690" y="200" as="targetPoint" />
          </mxGeometry>
        </mxCell>
        <mxCell id="bCiMZOsuGKfymfVhtz7p-124" value="" style="endArrow=classic;html=1;rounded=0;" parent="1" edge="1">
          <mxGeometry width="50" height="50" relative="1" as="geometry">
            <mxPoint x="770" y="160" as="sourcePoint" />
            <mxPoint x="770" y="250" as="targetPoint" />
          </mxGeometry>
        </mxCell>
        <mxCell id="bCiMZOsuGKfymfVhtz7p-125" value="Name" style="ellipse;whiteSpace=wrap;html=1;" parent="1" vertex="1">
          <mxGeometry x="520" y="200" width="70" height="30" as="geometry" />
        </mxCell>
        <mxCell id="bCiMZOsuGKfymfVhtz7p-126" value="Price" style="ellipse;whiteSpace=wrap;html=1;" parent="1" vertex="1">
          <mxGeometry x="650" y="200" width="70" height="30" as="geometry" />
        </mxCell>
        <mxCell id="bCiMZOsuGKfymfVhtz7p-148" style="edgeStyle=orthogonalEdgeStyle;rounded=0;orthogonalLoop=1;jettySize=auto;html=1;exitX=0;exitY=0.5;exitDx=0;exitDy=0;entryX=1;entryY=0.5;entryDx=0;entryDy=0;" parent="1" source="bCiMZOsuGKfymfVhtz7p-131" target="bCiMZOsuGKfymfVhtz7p-60" edge="1">
          <mxGeometry relative="1" as="geometry">
            <Array as="points">
              <mxPoint x="1060" y="395" />
              <mxPoint x="1060" y="645" />
            </Array>
          </mxGeometry>
        </mxCell>
        <mxCell id="bCiMZOsuGKfymfVhtz7p-155" style="edgeStyle=orthogonalEdgeStyle;rounded=0;orthogonalLoop=1;jettySize=auto;html=1;exitX=0.25;exitY=0;exitDx=0;exitDy=0;entryX=0;entryY=0;entryDx=0;entryDy=0;" parent="1" source="bCiMZOsuGKfymfVhtz7p-131" target="bCiMZOsuGKfymfVhtz7p-85" edge="1">
          <mxGeometry relative="1" as="geometry">
            <Array as="points">
              <mxPoint x="1315" y="330" />
              <mxPoint x="260" y="330" />
            </Array>
          </mxGeometry>
        </mxCell>
        <mxCell id="bCiMZOsuGKfymfVhtz7p-158" style="edgeStyle=orthogonalEdgeStyle;rounded=0;orthogonalLoop=1;jettySize=auto;html=1;exitX=1;exitY=0.5;exitDx=0;exitDy=0;entryX=1;entryY=0.75;entryDx=0;entryDy=0;" parent="1" source="bCiMZOsuGKfymfVhtz7p-131" target="bCiMZOsuGKfymfVhtz7p-29" edge="1">
          <mxGeometry relative="1" as="geometry">
            <Array as="points">
              <mxPoint x="1550" y="395" />
              <mxPoint x="1550" y="878" />
            </Array>
          </mxGeometry>
        </mxCell>
        <mxCell id="bCiMZOsuGKfymfVhtz7p-210" style="edgeStyle=orthogonalEdgeStyle;rounded=0;orthogonalLoop=1;jettySize=auto;html=1;exitX=1;exitY=0.75;exitDx=0;exitDy=0;entryX=1;entryY=0.5;entryDx=0;entryDy=0;" parent="1" source="bCiMZOsuGKfymfVhtz7p-131" target="bCiMZOsuGKfymfVhtz7p-198" edge="1">
          <mxGeometry relative="1" as="geometry">
            <Array as="points">
              <mxPoint x="1620" y="403" />
              <mxPoint x="1620" y="935" />
            </Array>
          </mxGeometry>
        </mxCell>
        <mxCell id="bCiMZOsuGKfymfVhtz7p-131" value="Transaction" style="rounded=1;whiteSpace=wrap;html=1;fillColor=#d5e8d4;strokeColor=#82b366;" parent="1" vertex="1">
          <mxGeometry x="1290" y="380" width="100" height="30" as="geometry" />
        </mxCell>
        <mxCell id="bCiMZOsuGKfymfVhtz7p-133" value="" style="endArrow=none;html=1;rounded=0;" parent="1" edge="1">
          <mxGeometry width="50" height="50" relative="1" as="geometry">
            <mxPoint x="1339.23" y="440" as="sourcePoint" />
            <mxPoint x="1339.67" y="410" as="targetPoint" />
          </mxGeometry>
        </mxCell>
        <mxCell id="bCiMZOsuGKfymfVhtz7p-134" value="" style="endArrow=none;html=1;rounded=0;" parent="1" edge="1">
          <mxGeometry width="50" height="50" relative="1" as="geometry">
            <mxPoint x="1195" y="440" as="sourcePoint" />
            <mxPoint x="1530" y="440" as="targetPoint" />
          </mxGeometry>
        </mxCell>
        <mxCell id="bCiMZOsuGKfymfVhtz7p-135" value="" style="endArrow=classic;html=1;rounded=0;" parent="1" edge="1">
          <mxGeometry width="50" height="50" relative="1" as="geometry">
            <mxPoint x="1200" y="440" as="sourcePoint" />
            <mxPoint x="1200" y="530" as="targetPoint" />
          </mxGeometry>
        </mxCell>
        <mxCell id="bCiMZOsuGKfymfVhtz7p-136" value="" style="endArrow=classic;html=1;rounded=0;" parent="1" edge="1">
          <mxGeometry width="50" height="50" relative="1" as="geometry">
            <mxPoint x="1290" y="440" as="sourcePoint" />
            <mxPoint x="1290" y="480" as="targetPoint" />
          </mxGeometry>
        </mxCell>
        <mxCell id="bCiMZOsuGKfymfVhtz7p-137" value="" style="endArrow=classic;html=1;rounded=0;" parent="1" edge="1">
          <mxGeometry width="50" height="50" relative="1" as="geometry">
            <mxPoint x="1390" y="440" as="sourcePoint" />
            <mxPoint x="1390" y="480" as="targetPoint" />
          </mxGeometry>
        </mxCell>
        <mxCell id="bCiMZOsuGKfymfVhtz7p-138" value="" style="endArrow=classic;html=1;rounded=0;" parent="1" edge="1">
          <mxGeometry width="50" height="50" relative="1" as="geometry">
            <mxPoint x="1339.23" y="440" as="sourcePoint" />
            <mxPoint x="1339.23" y="530" as="targetPoint" />
          </mxGeometry>
        </mxCell>
        <mxCell id="bCiMZOsuGKfymfVhtz7p-139" value="" style="endArrow=classic;html=1;rounded=0;" parent="1" edge="1">
          <mxGeometry width="50" height="50" relative="1" as="geometry">
            <mxPoint x="1460" y="440" as="sourcePoint" />
            <mxPoint x="1460" y="530" as="targetPoint" />
          </mxGeometry>
        </mxCell>
        <mxCell id="bCiMZOsuGKfymfVhtz7p-141" value="&lt;u&gt;Transaction_ID&lt;/u&gt;" style="ellipse;whiteSpace=wrap;html=1;" parent="1" vertex="1">
          <mxGeometry x="1130" y="530" width="140" height="30" as="geometry" />
        </mxCell>
        <mxCell id="bCiMZOsuGKfymfVhtz7p-142" value="Cart_ID(FK)" style="ellipse;whiteSpace=wrap;html=1;" parent="1" vertex="1">
          <mxGeometry x="1250" y="480" width="70" height="30" as="geometry" />
        </mxCell>
        <mxCell id="bCiMZOsuGKfymfVhtz7p-143" value="Total Amount" style="ellipse;whiteSpace=wrap;html=1;" parent="1" vertex="1">
          <mxGeometry x="1370" y="480" width="70" height="30" as="geometry" />
        </mxCell>
        <mxCell id="bCiMZOsuGKfymfVhtz7p-144" value="Address_ID(FK)" style="ellipse;whiteSpace=wrap;html=1;" parent="1" vertex="1">
          <mxGeometry x="1280" y="530" width="90" height="30" as="geometry" />
        </mxCell>
        <mxCell id="bCiMZOsuGKfymfVhtz7p-145" value="Payment_Meth_ID" style="ellipse;whiteSpace=wrap;html=1;" parent="1" vertex="1">
          <mxGeometry x="1410" y="530" width="110" height="40" as="geometry" />
        </mxCell>
        <mxCell id="bCiMZOsuGKfymfVhtz7p-146" value="" style="endArrow=classic;html=1;rounded=0;" parent="1" edge="1">
          <mxGeometry width="50" height="50" relative="1" as="geometry">
            <mxPoint x="1528.23" y="440" as="sourcePoint" />
            <mxPoint x="1528.23" y="480" as="targetPoint" />
          </mxGeometry>
        </mxCell>
        <mxCell id="bCiMZOsuGKfymfVhtz7p-147" value="Status" style="ellipse;whiteSpace=wrap;html=1;" parent="1" vertex="1">
          <mxGeometry x="1470" y="480" width="70" height="30" as="geometry" />
        </mxCell>
        <mxCell id="bCiMZOsuGKfymfVhtz7p-149" value="" style="rhombus;whiteSpace=wrap;html=1;fillColor=#f8cecc;strokeColor=#b85450;" parent="1" vertex="1">
          <mxGeometry x="1010" y="560" width="70" height="60" as="geometry" />
        </mxCell>
        <mxCell id="bCiMZOsuGKfymfVhtz7p-152" value="" style="rhombus;whiteSpace=wrap;html=1;fillColor=#f8cecc;strokeColor=#b85450;" parent="1" vertex="1">
          <mxGeometry x="810" y="150" width="70" height="60" as="geometry" />
        </mxCell>
        <mxCell id="C85dCYlZcWguoCNc_y_e-24" style="edgeStyle=orthogonalEdgeStyle;rounded=0;orthogonalLoop=1;jettySize=auto;html=1;exitX=0.5;exitY=0;exitDx=0;exitDy=0;entryX=0.5;entryY=0;entryDx=0;entryDy=0;" parent="1" source="bCiMZOsuGKfymfVhtz7p-159" target="bCiMZOsuGKfymfVhtz7p-176" edge="1">
          <mxGeometry relative="1" as="geometry" />
        </mxCell>
        <mxCell id="bCiMZOsuGKfymfVhtz7p-159" value="Courier" style="rounded=1;whiteSpace=wrap;html=1;fillColor=#d5e8d4;strokeColor=#82b366;" parent="1" vertex="1">
          <mxGeometry x="1390" y="130" width="100" height="30" as="geometry" />
        </mxCell>
        <mxCell id="bCiMZOsuGKfymfVhtz7p-160" value="" style="endArrow=none;html=1;rounded=0;" parent="1" edge="1">
          <mxGeometry width="50" height="50" relative="1" as="geometry">
            <mxPoint x="1439.9999999999998" y="190" as="sourcePoint" />
            <mxPoint x="1440.4399999999998" y="160" as="targetPoint" />
          </mxGeometry>
        </mxCell>
        <mxCell id="bCiMZOsuGKfymfVhtz7p-161" value="" style="endArrow=none;html=1;rounded=0;" parent="1" edge="1">
          <mxGeometry width="50" height="50" relative="1" as="geometry">
            <mxPoint x="1280" y="188" as="sourcePoint" />
            <mxPoint x="1570" y="188" as="targetPoint" />
          </mxGeometry>
        </mxCell>
        <mxCell id="bCiMZOsuGKfymfVhtz7p-162" value="" style="endArrow=classic;html=1;rounded=0;" parent="1" edge="1">
          <mxGeometry width="50" height="50" relative="1" as="geometry">
            <mxPoint x="1280" y="190" as="sourcePoint" />
            <mxPoint x="1280" y="230" as="targetPoint" />
          </mxGeometry>
        </mxCell>
        <mxCell id="bCiMZOsuGKfymfVhtz7p-165" value="" style="endArrow=classic;html=1;rounded=0;" parent="1" edge="1">
          <mxGeometry width="50" height="50" relative="1" as="geometry">
            <mxPoint x="1370" y="190" as="sourcePoint" />
            <mxPoint x="1370" y="280" as="targetPoint" />
          </mxGeometry>
        </mxCell>
        <mxCell id="bCiMZOsuGKfymfVhtz7p-166" value="" style="endArrow=classic;html=1;rounded=0;" parent="1" edge="1">
          <mxGeometry width="50" height="50" relative="1" as="geometry">
            <mxPoint x="1480" y="190" as="sourcePoint" />
            <mxPoint x="1480" y="280" as="targetPoint" />
          </mxGeometry>
        </mxCell>
        <mxCell id="bCiMZOsuGKfymfVhtz7p-167" value="" style="endArrow=classic;html=1;rounded=0;" parent="1" edge="1">
          <mxGeometry width="50" height="50" relative="1" as="geometry">
            <mxPoint x="1560" y="190" as="sourcePoint" />
            <mxPoint x="1560" y="230" as="targetPoint" />
          </mxGeometry>
        </mxCell>
        <mxCell id="bCiMZOsuGKfymfVhtz7p-168" value="Name" style="ellipse;whiteSpace=wrap;html=1;" parent="1" vertex="1">
          <mxGeometry x="1270" y="230" width="70" height="30" as="geometry" />
        </mxCell>
        <mxCell id="bCiMZOsuGKfymfVhtz7p-169" value="&lt;u&gt;Courier_ID&lt;/u&gt;" style="ellipse;whiteSpace=wrap;html=1;" parent="1" vertex="1">
          <mxGeometry x="1280" y="280" width="140" height="30" as="geometry" />
        </mxCell>
        <mxCell id="bCiMZOsuGKfymfVhtz7p-170" value="Phone_Number" style="ellipse;whiteSpace=wrap;html=1;" parent="1" vertex="1">
          <mxGeometry x="1430" y="280" width="140" height="30" as="geometry" />
        </mxCell>
        <mxCell id="bCiMZOsuGKfymfVhtz7p-171" value="Email" style="ellipse;whiteSpace=wrap;html=1;" parent="1" vertex="1">
          <mxGeometry x="1540" y="230" width="70" height="30" as="geometry" />
        </mxCell>
        <mxCell id="bCiMZOsuGKfymfVhtz7p-192" style="edgeStyle=orthogonalEdgeStyle;rounded=0;orthogonalLoop=1;jettySize=auto;html=1;exitX=1;exitY=0.5;exitDx=0;exitDy=0;entryX=0;entryY=0.25;entryDx=0;entryDy=0;" parent="1" source="bCiMZOsuGKfymfVhtz7p-176" target="bCiMZOsuGKfymfVhtz7p-131" edge="1">
          <mxGeometry relative="1" as="geometry">
            <Array as="points">
              <mxPoint x="1250" y="115" />
              <mxPoint x="1250" y="387" />
            </Array>
          </mxGeometry>
        </mxCell>
        <mxCell id="bCiMZOsuGKfymfVhtz7p-176" value="Shipment" style="rounded=1;whiteSpace=wrap;html=1;fillColor=#d5e8d4;strokeColor=#82b366;" parent="1" vertex="1">
          <mxGeometry x="1020" y="100" width="100" height="30" as="geometry" />
        </mxCell>
        <mxCell id="bCiMZOsuGKfymfVhtz7p-177" value="" style="endArrow=none;html=1;rounded=0;" parent="1" edge="1">
          <mxGeometry width="50" height="50" relative="1" as="geometry">
            <mxPoint x="1070" y="150" as="sourcePoint" />
            <mxPoint x="1069.85" y="130" as="targetPoint" />
          </mxGeometry>
        </mxCell>
        <mxCell id="bCiMZOsuGKfymfVhtz7p-178" value="" style="endArrow=none;html=1;rounded=0;" parent="1" edge="1">
          <mxGeometry width="50" height="50" relative="1" as="geometry">
            <mxPoint x="930" y="150" as="sourcePoint" />
            <mxPoint x="1220" y="150" as="targetPoint" />
          </mxGeometry>
        </mxCell>
        <mxCell id="bCiMZOsuGKfymfVhtz7p-179" value="&lt;u&gt;Shipment_ID&lt;/u&gt;" style="ellipse;whiteSpace=wrap;html=1;" parent="1" vertex="1">
          <mxGeometry x="870" y="190" width="100" height="30" as="geometry" />
        </mxCell>
        <mxCell id="bCiMZOsuGKfymfVhtz7p-180" value="" style="endArrow=classic;html=1;rounded=0;" parent="1" edge="1">
          <mxGeometry width="50" height="50" relative="1" as="geometry">
            <mxPoint x="930" y="150" as="sourcePoint" />
            <mxPoint x="930" y="190" as="targetPoint" />
          </mxGeometry>
        </mxCell>
        <mxCell id="bCiMZOsuGKfymfVhtz7p-181" value="" style="endArrow=classic;html=1;rounded=0;" parent="1" edge="1">
          <mxGeometry width="50" height="50" relative="1" as="geometry">
            <mxPoint x="980" y="150" as="sourcePoint" />
            <mxPoint x="980" y="240" as="targetPoint" />
          </mxGeometry>
        </mxCell>
        <mxCell id="bCiMZOsuGKfymfVhtz7p-182" value="Transaction_ID(FK)" style="ellipse;whiteSpace=wrap;html=1;" parent="1" vertex="1">
          <mxGeometry x="880" y="240" width="120" height="30" as="geometry" />
        </mxCell>
        <mxCell id="bCiMZOsuGKfymfVhtz7p-183" value="" style="endArrow=classic;html=1;rounded=0;" parent="1" edge="1">
          <mxGeometry width="50" height="50" relative="1" as="geometry">
            <mxPoint x="1040" y="150" as="sourcePoint" />
            <mxPoint x="1040" y="190" as="targetPoint" />
          </mxGeometry>
        </mxCell>
        <mxCell id="bCiMZOsuGKfymfVhtz7p-185" value="Courier_ID(FK)" style="ellipse;whiteSpace=wrap;html=1;" parent="1" vertex="1">
          <mxGeometry x="980" y="190" width="90" height="20" as="geometry" />
        </mxCell>
        <mxCell id="bCiMZOsuGKfymfVhtz7p-186" value="" style="endArrow=classic;html=1;rounded=0;" parent="1" edge="1">
          <mxGeometry width="50" height="50" relative="1" as="geometry">
            <mxPoint x="1110" y="150" as="sourcePoint" />
            <mxPoint x="1110" y="240" as="targetPoint" />
          </mxGeometry>
        </mxCell>
        <mxCell id="bCiMZOsuGKfymfVhtz7p-187" value="Estimated Delivery Date" style="ellipse;whiteSpace=wrap;html=1;" parent="1" vertex="1">
          <mxGeometry x="1030" y="240" width="100" height="40" as="geometry" />
        </mxCell>
        <mxCell id="bCiMZOsuGKfymfVhtz7p-188" value="" style="endArrow=classic;html=1;rounded=0;" parent="1" edge="1">
          <mxGeometry width="50" height="50" relative="1" as="geometry">
            <mxPoint x="1220" y="150" as="sourcePoint" />
            <mxPoint x="1220" y="190" as="targetPoint" />
          </mxGeometry>
        </mxCell>
        <mxCell id="bCiMZOsuGKfymfVhtz7p-190" value="Actual Delivery Date" style="ellipse;whiteSpace=wrap;html=1;" parent="1" vertex="1">
          <mxGeometry x="1130" y="190" width="100" height="30" as="geometry" />
        </mxCell>
        <mxCell id="bCiMZOsuGKfymfVhtz7p-193" value="" style="rhombus;whiteSpace=wrap;html=1;fillColor=#f8cecc;strokeColor=#b85450;" parent="1" vertex="1">
          <mxGeometry x="1240" y="40" width="70" height="60" as="geometry" />
        </mxCell>
        <mxCell id="bCiMZOsuGKfymfVhtz7p-194" value="" style="rhombus;whiteSpace=wrap;html=1;fillColor=#f8cecc;strokeColor=#b85450;" parent="1" vertex="1">
          <mxGeometry x="1200" y="240" width="70" height="60" as="geometry" />
        </mxCell>
        <mxCell id="bCiMZOsuGKfymfVhtz7p-198" value="Refund" style="rounded=1;whiteSpace=wrap;html=1;fillColor=#d5e8d4;strokeColor=#82b366;" parent="1" vertex="1">
          <mxGeometry x="1220" y="920" width="80" height="30" as="geometry" />
        </mxCell>
        <mxCell id="bCiMZOsuGKfymfVhtz7p-199" value="" style="endArrow=none;html=1;rounded=0;" parent="1" edge="1">
          <mxGeometry width="50" height="50" relative="1" as="geometry">
            <mxPoint x="1259.3799999999997" y="950" as="sourcePoint" />
            <mxPoint x="1259" y="970" as="targetPoint" />
          </mxGeometry>
        </mxCell>
        <mxCell id="bCiMZOsuGKfymfVhtz7p-200" value="" style="endArrow=none;html=1;rounded=0;" parent="1" edge="1">
          <mxGeometry width="50" height="50" relative="1" as="geometry">
            <mxPoint x="1115" y="969.38" as="sourcePoint" />
            <mxPoint x="1405" y="969.38" as="targetPoint" />
          </mxGeometry>
        </mxCell>
        <mxCell id="bCiMZOsuGKfymfVhtz7p-201" value="Transaction_ID(FK)" style="ellipse;whiteSpace=wrap;html=1;" parent="1" vertex="1">
          <mxGeometry x="1130" y="1060" width="120" height="30" as="geometry" />
        </mxCell>
        <mxCell id="bCiMZOsuGKfymfVhtz7p-202" value="" style="endArrow=classic;html=1;rounded=0;" parent="1" edge="1">
          <mxGeometry width="50" height="50" relative="1" as="geometry">
            <mxPoint x="1120" y="970" as="sourcePoint" />
            <mxPoint x="1120" y="1010" as="targetPoint" />
          </mxGeometry>
        </mxCell>
        <mxCell id="bCiMZOsuGKfymfVhtz7p-203" value="" style="endArrow=classic;html=1;rounded=0;" parent="1" edge="1">
          <mxGeometry width="50" height="50" relative="1" as="geometry">
            <mxPoint x="1210" y="970" as="sourcePoint" />
            <mxPoint x="1210" y="1060" as="targetPoint" />
          </mxGeometry>
        </mxCell>
        <mxCell id="bCiMZOsuGKfymfVhtz7p-204" value="" style="endArrow=classic;html=1;rounded=0;" parent="1" edge="1">
          <mxGeometry width="50" height="50" relative="1" as="geometry">
            <mxPoint x="1320" y="970" as="sourcePoint" />
            <mxPoint x="1320" y="1060" as="targetPoint" />
          </mxGeometry>
        </mxCell>
        <mxCell id="bCiMZOsuGKfymfVhtz7p-205" value="" style="endArrow=classic;html=1;rounded=0;" parent="1" edge="1">
          <mxGeometry width="50" height="50" relative="1" as="geometry">
            <mxPoint x="1404.38" y="970" as="sourcePoint" />
            <mxPoint x="1404.38" y="1010" as="targetPoint" />
          </mxGeometry>
        </mxCell>
        <mxCell id="bCiMZOsuGKfymfVhtz7p-206" value="&lt;u&gt;Refund_ID&lt;/u&gt;" style="ellipse;whiteSpace=wrap;html=1;" parent="1" vertex="1">
          <mxGeometry x="1030" y="1010" width="120" height="30" as="geometry" />
        </mxCell>
        <mxCell id="bCiMZOsuGKfymfVhtz7p-207" value="Reason" style="ellipse;whiteSpace=wrap;html=1;" parent="1" vertex="1">
          <mxGeometry x="1270" y="1060" width="120" height="30" as="geometry" />
        </mxCell>
        <mxCell id="bCiMZOsuGKfymfVhtz7p-208" value="&lt;u&gt;Refund_Date&lt;/u&gt;" style="ellipse;whiteSpace=wrap;html=1;" parent="1" vertex="1">
          <mxGeometry x="1350" y="1010" width="120" height="30" as="geometry" />
        </mxCell>
        <mxCell id="bCiMZOsuGKfymfVhtz7p-211" value="" style="rhombus;whiteSpace=wrap;html=1;fillColor=#f8cecc;strokeColor=#b85450;" parent="1" vertex="1">
          <mxGeometry x="1500" y="910" width="70" height="60" as="geometry" />
        </mxCell>
        <mxCell id="bCiMZOsuGKfymfVhtz7p-212" value="" style="rhombus;whiteSpace=wrap;html=1;fillColor=#f8cecc;strokeColor=#b85450;" parent="1" vertex="1">
          <mxGeometry x="1040" y="855" width="70" height="60" as="geometry" />
        </mxCell>
        <mxCell id="C85dCYlZcWguoCNc_y_e-1" value="1" style="text;html=1;align=center;verticalAlign=middle;resizable=0;points=[];autosize=1;strokeColor=none;fillColor=none;" parent="1" vertex="1">
          <mxGeometry x="595" y="585" width="30" height="30" as="geometry" />
        </mxCell>
        <mxCell id="C85dCYlZcWguoCNc_y_e-5" value="1" style="text;html=1;align=center;verticalAlign=middle;resizable=0;points=[];autosize=1;strokeColor=none;fillColor=none;" parent="1" vertex="1">
          <mxGeometry x="605" y="618" width="30" height="30" as="geometry" />
        </mxCell>
        <mxCell id="C85dCYlZcWguoCNc_y_e-6" value="M" style="text;html=1;align=center;verticalAlign=middle;resizable=0;points=[];autosize=1;strokeColor=none;fillColor=none;" parent="1" vertex="1">
          <mxGeometry x="675" y="828" width="30" height="30" as="geometry" />
        </mxCell>
        <mxCell id="C85dCYlZcWguoCNc_y_e-7" value="M" style="text;html=1;align=center;verticalAlign=middle;resizable=0;points=[];autosize=1;strokeColor=none;fillColor=none;" parent="1" vertex="1">
          <mxGeometry x="815" y="588" width="30" height="30" as="geometry" />
        </mxCell>
        <mxCell id="C85dCYlZcWguoCNc_y_e-8" value="1" style="text;html=1;align=center;verticalAlign=middle;resizable=0;points=[];autosize=1;strokeColor=none;fillColor=none;" parent="1" vertex="1">
          <mxGeometry x="445" y="588" width="30" height="30" as="geometry" />
        </mxCell>
        <mxCell id="C85dCYlZcWguoCNc_y_e-9" value="M" style="text;html=1;align=center;verticalAlign=middle;resizable=0;points=[];autosize=1;strokeColor=none;fillColor=none;" parent="1" vertex="1">
          <mxGeometry x="395" y="378" width="30" height="30" as="geometry" />
        </mxCell>
        <mxCell id="C85dCYlZcWguoCNc_y_e-10" value="1" style="text;html=1;align=center;verticalAlign=middle;resizable=0;points=[];autosize=1;strokeColor=none;fillColor=none;" parent="1" vertex="1">
          <mxGeometry x="775" y="88" width="30" height="30" as="geometry" />
        </mxCell>
        <mxCell id="C85dCYlZcWguoCNc_y_e-11" value="M" style="text;html=1;align=center;verticalAlign=middle;resizable=0;points=[];autosize=1;strokeColor=none;fillColor=none;" parent="1" vertex="1">
          <mxGeometry x="835" y="368" width="30" height="30" as="geometry" />
        </mxCell>
        <mxCell id="C85dCYlZcWguoCNc_y_e-12" value="M" style="text;html=1;align=center;verticalAlign=middle;resizable=0;points=[];autosize=1;strokeColor=none;fillColor=none;" parent="1" vertex="1">
          <mxGeometry x="595" y="338" width="30" height="30" as="geometry" />
        </mxCell>
        <mxCell id="C85dCYlZcWguoCNc_y_e-13" value="M" style="text;html=1;align=center;verticalAlign=middle;resizable=0;points=[];autosize=1;strokeColor=none;fillColor=none;" parent="1" vertex="1">
          <mxGeometry x="435" y="338" width="30" height="30" as="geometry" />
        </mxCell>
        <mxCell id="C85dCYlZcWguoCNc_y_e-14" value="1" style="text;html=1;align=center;verticalAlign=middle;resizable=0;points=[];autosize=1;strokeColor=none;fillColor=none;" parent="1" vertex="1">
          <mxGeometry x="1265" y="298" width="30" height="30" as="geometry" />
        </mxCell>
        <mxCell id="C85dCYlZcWguoCNc_y_e-15" value="1" style="text;html=1;align=center;verticalAlign=middle;resizable=0;points=[];autosize=1;strokeColor=none;fillColor=none;" parent="1" vertex="1">
          <mxGeometry x="265" y="308" width="30" height="30" as="geometry" />
        </mxCell>
        <mxCell id="C85dCYlZcWguoCNc_y_e-16" value="" style="rhombus;whiteSpace=wrap;html=1;fillColor=#f8cecc;strokeColor=#b85450;" parent="1" vertex="1">
          <mxGeometry x="1000" y="300" width="70" height="60" as="geometry" />
        </mxCell>
        <mxCell id="C85dCYlZcWguoCNc_y_e-17" value="M" style="text;html=1;align=center;verticalAlign=middle;resizable=0;points=[];autosize=1;strokeColor=none;fillColor=none;" parent="1" vertex="1">
          <mxGeometry x="1155" y="358" width="30" height="30" as="geometry" />
        </mxCell>
        <mxCell id="C85dCYlZcWguoCNc_y_e-18" value="1" style="text;html=1;align=center;verticalAlign=middle;resizable=0;points=[];autosize=1;strokeColor=none;fillColor=none;" parent="1" vertex="1">
          <mxGeometry x="995" y="618" width="30" height="30" as="geometry" />
        </mxCell>
        <mxCell id="C85dCYlZcWguoCNc_y_e-20" value="M" style="text;html=1;align=center;verticalAlign=middle;resizable=0;points=[];autosize=1;strokeColor=none;fillColor=none;" parent="1" vertex="1">
          <mxGeometry x="1455" y="368" width="30" height="30" as="geometry" />
        </mxCell>
        <mxCell id="C85dCYlZcWguoCNc_y_e-21" value="1" style="text;html=1;align=center;verticalAlign=middle;resizable=0;points=[];autosize=1;strokeColor=none;fillColor=none;" parent="1" vertex="1">
          <mxGeometry x="875" y="848" width="30" height="30" as="geometry" />
        </mxCell>
        <mxCell id="C85dCYlZcWguoCNc_y_e-22" value="1" style="text;html=1;align=center;verticalAlign=middle;resizable=0;points=[];autosize=1;strokeColor=none;fillColor=none;" parent="1" vertex="1">
          <mxGeometry x="1375" y="48" width="30" height="30" as="geometry" />
        </mxCell>
        <mxCell id="C85dCYlZcWguoCNc_y_e-23" value="M" style="text;html=1;align=center;verticalAlign=middle;resizable=0;points=[];autosize=1;strokeColor=none;fillColor=none;" parent="1" vertex="1">
          <mxGeometry x="1135" y="48" width="30" height="30" as="geometry" />
        </mxCell>
        <mxCell id="C85dCYlZcWguoCNc_y_e-25" value="1" style="text;html=1;align=center;verticalAlign=middle;resizable=0;points=[];autosize=1;strokeColor=none;fillColor=none;" parent="1" vertex="1">
          <mxGeometry x="1165" y="88" width="30" height="30" as="geometry" />
        </mxCell>
        <mxCell id="C85dCYlZcWguoCNc_y_e-26" value="1" style="text;html=1;align=center;verticalAlign=middle;resizable=0;points=[];autosize=1;strokeColor=none;fillColor=none;" parent="1" vertex="1">
          <mxGeometry x="1225" y="338" width="30" height="30" as="geometry" />
        </mxCell>
        <mxCell id="C85dCYlZcWguoCNc_y_e-27" value="1" style="text;html=1;align=center;verticalAlign=middle;resizable=0;points=[];autosize=1;strokeColor=none;fillColor=none;" parent="1" vertex="1">
          <mxGeometry x="1565" y="378" width="30" height="30" as="geometry" />
        </mxCell>
        <mxCell id="C85dCYlZcWguoCNc_y_e-29" value="1" style="text;html=1;align=center;verticalAlign=middle;resizable=0;points=[];autosize=1;strokeColor=none;fillColor=none;" parent="1" vertex="1">
          <mxGeometry x="1415" y="908" width="30" height="30" as="geometry" />
        </mxCell>
      </root>
    </mxGraphModel>
  </diagram>
</mxfile>
